<svg xmlns="http://www.w3.org/2000/svg" viewBox="0 0 32 32"><title>OfficeCore10_32x_24x_20x_16x_01-22-2019</title><g id="STYLE_COLOR" data-name="STYLE = COLOR"><path d="M20,2H9.33325A1.33332,1.33332,0,0,0,7.99994,3.33331V9L20,16l6,2.53156L32,16V9Z" fill="#21a366"/><rect x="7.99994" y="8.99999" width="12.00006" height="7" fill="#107c41"/><path d="M30.66663,2H20V9H32V3.33331A1.33333,1.33333,0,0,0,30.66663,2Z" fill="#33c481"/><path d="M20,16H7.99994V28.66663A1.33338,1.33338,0,0,0,9.33325,30H30.66663A1.33339,1.33339,0,0,0,32,28.66663V23Z" fill="#185c37"/><rect x="20" y="16" width="12" height="7" fill="#107c41"/><path d="M16.66664,7H8V26h8.66662A1.33732,1.33732,0,0,0,18,24.66663V8.33331A1.33727,1.33727,0,0,0,16.66664,7Z" opacity="0.1"/><path d="M15.66664,8H8V27h7.66662A1.33732,1.33732,0,0,0,17,25.66663V9.33331A1.33727,1.33727,0,0,0,15.66664,8Z" opacity="0.2"/><path d="M15.66664,8H8V25h7.66662A1.33732,1.33732,0,0,0,17,23.66663V9.33331A1.33727,1.33727,0,0,0,15.66664,8Z" opacity="0.2"/><path d="M14.66664,8H8V25h6.66662A1.33732,1.33732,0,0,0,16,23.66663V9.33331A1.33727,1.33727,0,0,0,14.66664,8Z" opacity="0.2"/><path id="Back_Plate" data-name="Back Plate" d="M1.33333,8H14.66669A1.33334,1.33334,0,0,1,16,9.33334V22.66666A1.33333,1.33333,0,0,1,14.6667,24H1.33333A1.33333,1.33333,0,0,1,0,22.66666V9.33333A1.33333,1.33333,0,0,1,1.33333,8Z" fill="#107c41"/><path d="M3.53349,21l3.2357-5.01395L3.80545,11H6.19039l1.61785,3.18689q.22305.45349.30684.67643H8.136q.16028-.3624.33473-.70433L10.20015,11h2.18968L9.34939,15.95816,12.46654,21H10.13739L8.2685,17.4993a2.92157,2.92157,0,0,1-.22316-.46722H8.01745a2.2066,2.2066,0,0,1-.21618.45327L5.87658,21Z" fill="#fff"/><rect width="32" height="32" fill="none"/></g></svg>